<svg xmlns="http://www.w3.org/2000/svg" preserveAspectRatio="none" viewBox="0 0 100 1">
      <rect key="0" fill="#2563EB" height="0.06304000912249891" width="1" x="0" y="0.936959990877501" />,<rect key="1" fill="#2563EB" height="0.2878732584063808" width="1" x="1" y="0.7121267415936192" />,<rect key="2" fill="#2563EB" height="0.5730646357333229" width="1" x="2" y="0.4269353642666771" />,<rect key="3" fill="#2563EB" height="0.6094902618940894" width="1" x="3" y="0.3905097381059106" />,<rect key="4" fill="#2563EB" height="0.5433338621214905" width="1" x="4" y="0.4566661378785095" />,<rect key="5" fill="#2563EB" height="0.791656915180364" width="1" x="5" y="0.20834308481963604" />,<rect key="6" fill="#2563EB" height="0.4996782254691952" width="1" x="6" y="0.5003217745308048" />,<rect key="7" fill="#2563EB" height="0.3407781172505456" width="1" x="7" y="0.6592218827494545" />,<rect key="8" fill="#2563EB" height="0.3424381320018246" width="1" x="8" y="0.6575618679981754" />,<rect key="9" fill="#2563EB" height="0.33263116122924663" width="1" x="9" y="0.6673688387707534" />,<rect key="10" fill="#2563EB" height="0.5290480698915253" width="1" x="10" y="0.4709519301084747" />,<rect key="11" fill="#2563EB" height="0.4123821859315877" width="1" x="11" y="0.5876178140684123" />,<rect key="12" fill="#2563EB" height="0.6473675592499583" width="1" x="12" y="0.35263244075004174" />,<rect key="13" fill="#2563EB" height="0.5229973918466434" width="1" x="13" y="0.4770026081533566" />,<rect key="14" fill="#2563EB" height="0.5283801233607974" width="1" x="14" y="0.4716198766392026" />,<rect key="15" fill="#2563EB" height="0.7006605028442011" width="1" x="15" y="0.2993394971557989" />,<rect key="16" fill="#2563EB" height="0.4480464196421455" width="1" x="16" y="0.5519535803578546" />,<rect key="17" fill="#2563EB" height="0.31504354075218466" width="1" x="17" y="0.6849564592478153" />,<rect key="18" fill="#2563EB" height="0.28806854061537185" width="1" x="18" y="0.7119314593846282" />,<rect key="19" fill="#2563EB" height="0.42446976112691637" width="1" x="19" y="0.5755302388730836" />,<rect key="20" fill="#2563EB" height="0.49637794858567824" width="1" x="20" y="0.5036220514143217" />,<rect key="21" fill="#2563EB" height="0.4100213619252278" width="1" x="21" y="0.5899786380747722" />,<rect key="22" fill="#2563EB" height="0.755854410672581" width="1" x="22" y="0.24414558932741903" />,<rect key="23" fill="#2563EB" height="0.489666662247534" width="1" x="23" y="0.5103333377524659" />,<rect key="24" fill="#2563EB" height="0.6626504242425216" width="1" x="24" y="0.33734957575747837" />,<rect key="25" fill="#2563EB" height="0.5968122564954925" width="1" x="25" y="0.4031877435045075" />,<rect key="26" fill="#2563EB" height="0.3755035598937152" width="1" x="26" y="0.6244964401062848" />,<rect key="27" fill="#2563EB" height="0.3046401550922651" width="1" x="27" y="0.695359844907735" />,<rect key="28" fill="#2563EB" height="0.29425930199751177" width="1" x="28" y="0.7057406980024883" />,<rect key="29" fill="#2563EB" height="0.44697124450451065" width="1" x="29" y="0.5530287554954894" />,<rect key="30" fill="#2563EB" height="0.4394504225783675" width="1" x="30" y="0.5605495774216325" />,<rect key="31" fill="#2563EB" height="0.5060483033141759" width="1" x="31" y="0.49395169668582406" />,<rect key="32" fill="#2563EB" height="0.6884012207566249" width="1" x="32" y="0.3115987792433751" />,<rect key="33" fill="#2563EB" height="0.584496690991709" width="1" x="33" y="0.415503309008291" />,<rect key="34" fill="#2563EB" height="0.8155321416995199" width="1" x="34" y="0.18446785830048007" />,<rect key="35" fill="#2563EB" height="0.6057692315735757" width="1" x="35" y="0.39423076842642435" />,<rect key="36" fill="#2563EB" height="0.425544471271866" width="1" x="36" y="0.574455528728134" />,<rect key="37" fill="#2563EB" height="0.36551876234347225" width="1" x="37" y="0.6344812376565278" />,<rect key="38" fill="#2563EB" height="0.36762776964829896" width="1" x="38" y="0.632372230351701" />,<rect key="39" fill="#2563EB" height="0.6940244602080947" width="1" x="39" y="0.3059755397919053" />,<rect key="40" fill="#2563EB" height="0.8303312854893028" width="1" x="40" y="0.1696687145106972" />,<rect key="41" fill="#2563EB" height="0.8001913886170093" width="1" x="41" y="0.19980861138299066" />,<rect key="42" fill="#2563EB" height="0.7682168773769971" width="1" x="42" y="0.23178312262300294" />,<rect key="43" fill="#2563EB" height="0.7923061327767217" width="1" x="43" y="0.20769386722327832" />,<rect key="44" fill="#2563EB" height="0.936451462249004" width="1" x="44" y="0.063548537750996" />,<rect key="45" fill="#2563EB" height="0.7867899495660627" width="1" x="45" y="0.21321005043393726" />,<rect key="46" fill="#2563EB" height="0.6566091080648659" width="1" x="46" y="0.34339089193513406" />,<rect key="47" fill="#2563EB" height="0.5439563970598744" width="1" x="47" y="0.4560436029401256" />,<rect key="48" fill="#2563EB" height="0.6921502620409067" width="1" x="48" y="0.3078497379590933" />,<rect key="49" fill="#2563EB" height="0.7947448950825133" width="1" x="49" y="0.20525510491748666" />,<rect key="50" fill="#2563EB" height="0.7884169035202878" width="1" x="50" y="0.21158309647971218" />,<rect key="51" fill="#2563EB" height="0.7926704196334944" width="1" x="51" y="0.20732958036650562" />,<rect key="52" fill="#2563EB" height="0.6455317302243613" width="1" x="52" y="0.3544682697756387" />,<rect key="53" fill="#2563EB" height="0.8078489081365336" width="1" x="53" y="0.19215109186346635" />,<rect key="54" fill="#2563EB" height="0.8244524131926068" width="1" x="54" y="0.17554758680739324" />,<rect key="55" fill="#2563EB" height="0.729108358787482" width="1" x="55" y="0.27089164121251796" />,<rect key="56" fill="#2563EB" height="0.6266765376247165" width="1" x="56" y="0.37332346237528347" />,<rect key="57" fill="#2563EB" height="0.582902302015855" width="1" x="57" y="0.417097697984145" />,<rect key="58" fill="#2563EB" height="0.6646327370135644" width="1" x="58" y="0.3353672629864356" />,<rect key="59" fill="#2563EB" height="0.7114376627338044" width="1" x="59" y="0.2885623372661956" />,<rect key="60" fill="#2563EB" height="0.6694886683133904" width="1" x="60" y="0.3305113316866096" />,<rect key="61" fill="#2563EB" height="0.8766359833775461" width="1" x="61" y="0.12336401662245389" />,<rect key="62" fill="#2563EB" height="0.6025626375960961" width="1" x="62" y="0.3974373624039039" />,<rect key="63" fill="#2563EB" height="0.9017182859801494" width="1" x="63" y="0.09828171401985064" />,<rect key="64" fill="#2563EB" height="0.7644360345179599" width="1" x="64" y="0.23556396548204006" />,<rect key="65" fill="#2563EB" height="0.6028867645284851" width="1" x="65" y="0.3971132354715149" />,<rect key="66" fill="#2563EB" height="0.5875017356956385" width="1" x="66" y="0.41249826430436154" />,<rect key="67" fill="#2563EB" height="0.5305986891781975" width="1" x="67" y="0.4694013108218025" />,<rect key="68" fill="#2563EB" height="0.6903295322003028" width="1" x="68" y="0.3096704677996972" />,<rect key="69" fill="#2563EB" height="0.7316375162796298" width="1" x="69" y="0.2683624837203702" />,<rect key="70" fill="#2563EB" height="0.6559833000939451" width="1" x="70" y="0.3440166999060549" />,<rect key="71" fill="#2563EB" height="0.8081554872609975" width="1" x="71" y="0.1918445127390025" />,<rect key="72" fill="#2563EB" height="0.7664368176368548" width="1" x="72" y="0.23356318236314522" />,<rect key="73" fill="#2563EB" height="0.9045307327765716" width="1" x="73" y="0.09546926722342841" />,<rect key="74" fill="#2563EB" height="0.8031141390271392" width="1" x="74" y="0.19688586097286076" />,<rect key="75" fill="#2563EB" height="0.6308899093404983" width="1" x="75" y="0.36911009065950173" />,<rect key="76" fill="#2563EB" height="0.4866413973423924" width="1" x="76" y="0.5133586026576076" />,<rect key="77" fill="#2563EB" height="0.5772399930778105" width="1" x="77" y="0.4227600069221895" />,<rect key="78" fill="#2563EB" height="0.765037647042183" width="1" x="78" y="0.23496235295781698" />,<rect key="79" fill="#2563EB" height="0.8000142956518763" width="1" x="79" y="0.19998570434812368" />,<rect key="80" fill="#2563EB" height="1" width="1" x="80" y="0" />,<rect key="81" fill="#2563EB" height="0.9756632404043216" width="1" x="81" y="0.02433675959567838" />,<rect key="82" fill="#2563EB" height="0.7709847854978082" width="1" x="82" y="0.22901521450219176" />,<rect key="83" fill="#2563EB" height="0.8036066294622496" width="1" x="83" y="0.1963933705377504" />,<rect key="84" fill="#2563EB" height="0.5344212435094324" width="1" x="84" y="0.46557875649056757" />,<rect key="85" fill="#2563EB" height="0.5027491881081131" width="1" x="85" y="0.4972508118918869" />,<rect key="86" fill="#2563EB" height="0.19967141115040485" width="1" x="86" y="0.8003285888495951" />,<rect key="87" fill="#2563EB" height="0.0625315343249485" width="1" x="87" y="0.9374684656750515" />,<rect key="88" fill="#2563EB" height="0.06309845525528585" width="1" x="88" y="0.9369015447447142" />,<rect key="89" fill="#2563EB" height="0.04977485308405381" width="1" x="89" y="0.9502251469159462" />,<rect key="90" fill="#2563EB" height="0.05516116332676946" width="1" x="90" y="0.9448388366732305" />,<rect key="91" fill="#2563EB" height="0.07326798665214097" width="1" x="91" y="0.926732013347859" />,<rect key="92" fill="#2563EB" height="0.058420101581329015" width="1" x="92" y="0.941579898418671" />,<rect key="93" fill="#2563EB" height="0.011783996358329775" width="1" x="93" y="0.9882160036416702" />,<rect key="94" fill="#2563EB" height="0.002293466694709017" width="1" x="94" y="0.997706533305291" />,<rect key="95" fill="#2563EB" height="0.0003986510055575126" width="1" x="95" y="0.9996013489944425" />,<rect key="96" fill="#2563EB" height="0.00010146427498691959" width="1" x="96" y="0.9998985357250131" />,<rect key="97" fill="#2563EB" height="0.00001583020563020737" width="1" x="97" y="0.9999841697943698" />,<rect key="98" fill="#2563EB" height="0.0000012917897184572452" width="1" x="98" y="0.9999987082102816" />
    </svg>