<svg xmlns="http://www.w3.org/2000/svg" preserveAspectRatio="none" viewBox="0 0 100 1">
      <rect key="0" fill="#2563EB" height="0.3393493080628717" width="1" x="0" y="0.6606506919371282" />,<rect key="1" fill="#2563EB" height="0.3905282026906417" width="1" x="1" y="0.6094717973093583" />,<rect key="2" fill="#2563EB" height="0.42098699236213066" width="1" x="2" y="0.5790130076378693" />,<rect key="3" fill="#2563EB" height="0.40048558937019285" width="1" x="3" y="0.5995144106298071" />,<rect key="4" fill="#2563EB" height="0.47075178274596263" width="1" x="4" y="0.5292482172540374" />,<rect key="5" fill="#2563EB" height="0.3776859733105344" width="1" x="5" y="0.6223140266894656" />,<rect key="6" fill="#2563EB" height="0.4329102435775296" width="1" x="6" y="0.5670897564224704" />,<rect key="7" fill="#2563EB" height="0.41401006483105784" width="1" x="7" y="0.5859899351689422" />,<rect key="8" fill="#2563EB" height="0.3650074417348017" width="1" x="8" y="0.6349925582651983" />,<rect key="9" fill="#2563EB" height="0.4250174513217003" width="1" x="9" y="0.5749825486782997" />,<rect key="10" fill="#2563EB" height="0.4372789429318195" width="1" x="10" y="0.5627210570681804" />,<rect key="11" fill="#2563EB" height="0.3924530207328699" width="1" x="11" y="0.6075469792671301" />,<rect key="12" fill="#2563EB" height="0.265230487199264" width="1" x="12" y="0.734769512800736" />,<rect key="13" fill="#2563EB" height="0.7688732557032156" width="1" x="13" y="0.23112674429678437" />,<rect key="14" fill="#2563EB" height="0.6257911155128438" width="1" x="14" y="0.37420888448715617" />,<rect key="15" fill="#2563EB" height="0.6652748069140587" width="1" x="15" y="0.3347251930859413" />,<rect key="16" fill="#2563EB" height="0.7351557940153344" width="1" x="16" y="0.2648442059846656" />,<rect key="17" fill="#2563EB" height="0.642675611784429" width="1" x="17" y="0.357324388215571" />,<rect key="18" fill="#2563EB" height="0.6771079311720295" width="1" x="18" y="0.3228920688279705" />,<rect key="19" fill="#2563EB" height="0.6464433314036822" width="1" x="19" y="0.35355666859631785" />,<rect key="20" fill="#2563EB" height="0.6471597179450809" width="1" x="20" y="0.35284028205491913" />,<rect key="21" fill="#2563EB" height="0.7405180656644972" width="1" x="21" y="0.2594819343355028" />,<rect key="22" fill="#2563EB" height="0.6843455628623747" width="1" x="22" y="0.3156544371376253" />,<rect key="23" fill="#2563EB" height="0.6964715127080787" width="1" x="23" y="0.3035284872919213" />,<rect key="24" fill="#2563EB" height="0.71344749097621" width="1" x="24" y="0.28655250902379004" />,<rect key="25" fill="#2563EB" height="0.6129634090507173" width="1" x="25" y="0.38703659094928267" />,<rect key="26" fill="#2563EB" height="0.6887946179174537" width="1" x="26" y="0.31120538208254633" />,<rect key="27" fill="#2563EB" height="0.7145358840104926" width="1" x="27" y="0.2854641159895074" />,<rect key="28" fill="#2563EB" height="0.6908469803146521" width="1" x="28" y="0.3091530196853479" />,<rect key="29" fill="#2563EB" height="0.752167129022633" width="1" x="29" y="0.24783287097736695" />,<rect key="30" fill="#2563EB" height="0.6557900398434829" width="1" x="30" y="0.34420996015651706" />,<rect key="31" fill="#2563EB" height="0.7604609091123227" width="1" x="31" y="0.23953909088767733" />,<rect key="32" fill="#2563EB" height="0.9135564760392891" width="1" x="32" y="0.08644352396071087" />,<rect key="33" fill="#2563EB" height="0.6972401444732264" width="1" x="33" y="0.30275985552677365" />,<rect key="34" fill="#2563EB" height="0.8191553117034225" width="1" x="34" y="0.18084468829657752" />,<rect key="35" fill="#2563EB" height="0.9147124010704335" width="1" x="35" y="0.0852875989295665" />,<rect key="36" fill="#2563EB" height="0.6149264503435091" width="1" x="36" y="0.3850735496564909" />,<rect key="37" fill="#2563EB" height="0.5951842934130892" width="1" x="37" y="0.4048157065869108" />,<rect key="38" fill="#2563EB" height="0.746897880740315" width="1" x="38" y="0.25310211925968495" />,<rect key="39" fill="#2563EB" height="0.7114087704620075" width="1" x="39" y="0.28859122953799254" />,<rect key="40" fill="#2563EB" height="0.7412352429474396" width="1" x="40" y="0.2587647570525604" />,<rect key="41" fill="#2563EB" height="0.7475033786555133" width="1" x="41" y="0.2524966213444867" />,<rect key="42" fill="#2563EB" height="0.826423464122667" width="1" x="42" y="0.17357653587733302" />,<rect key="43" fill="#2563EB" height="0.7820417510242353" width="1" x="43" y="0.21795824897576466" />,<rect key="44" fill="#2563EB" height="0.7209133472236727" width="1" x="44" y="0.27908665277632727" />,<rect key="45" fill="#2563EB" height="0.6851761246446274" width="1" x="45" y="0.3148238753553726" />,<rect key="46" fill="#2563EB" height="0.7836821208683716" width="1" x="46" y="0.21631787913162837" />,<rect key="47" fill="#2563EB" height="0.7845009486686599" width="1" x="47" y="0.21549905133134006" />,<rect key="48" fill="#2563EB" height="0.6503418883663475" width="1" x="48" y="0.34965811163365246" />,<rect key="49" fill="#2563EB" height="0.8791581405563399" width="1" x="49" y="0.1208418594436601" />,<rect key="50" fill="#2563EB" height="0.9406052616595195" width="1" x="50" y="0.05939473834048048" />,<rect key="51" fill="#2563EB" height="0.717482857304893" width="1" x="51" y="0.28251714269510697" />,<rect key="52" fill="#2563EB" height="0.6121985715371997" width="1" x="52" y="0.3878014284628003" />,<rect key="53" fill="#2563EB" height="0.7560276343450408" width="1" x="53" y="0.24397236565495917" />,<rect key="54" fill="#2563EB" height="0.7626405181020107" width="1" x="54" y="0.23735948189798928" />,<rect key="55" fill="#2563EB" height="0.7172521150746483" width="1" x="55" y="0.28274788492535174" />,<rect key="56" fill="#2563EB" height="0.7463801812930457" width="1" x="56" y="0.25361981870695427" />,<rect key="57" fill="#2563EB" height="0.8364253587826124" width="1" x="57" y="0.16357464121738763" />,<rect key="58" fill="#2563EB" height="0.6876288856693376" width="1" x="58" y="0.31237111433066245" />,<rect key="59" fill="#2563EB" height="0.7281094187518861" width="1" x="59" y="0.27189058124811394" />,<rect key="60" fill="#2563EB" height="0.9545549149642905" width="1" x="60" y="0.04544508503570954" />,<rect key="61" fill="#2563EB" height="0.876769756965168" width="1" x="61" y="0.12323024303483199" />,<rect key="62" fill="#2563EB" height="0.936346137803479" width="1" x="62" y="0.06365386219652103" />,<rect key="63" fill="#2563EB" height="0.9116505780101062" width="1" x="63" y="0.08834942198989382" />,<rect key="64" fill="#2563EB" height="0.809260630277584" width="1" x="64" y="0.190739369722416" />,<rect key="65" fill="#2563EB" height="0.8337542288265304" width="1" x="65" y="0.16624577117346961" />,<rect key="66" fill="#2563EB" height="0.8018661439009049" width="1" x="66" y="0.19813385609909506" />,<rect key="67" fill="#2563EB" height="0.86285383385454" width="1" x="67" y="0.13714616614546005" />,<rect key="68" fill="#2563EB" height="0.9100508377590438" width="1" x="68" y="0.08994916224095617" />,<rect key="69" fill="#2563EB" height="0.8549453098596572" width="1" x="69" y="0.14505469014034278" />,<rect key="70" fill="#2563EB" height="0.7590556052350123" width="1" x="70" y="0.24094439476498775" />,<rect key="71" fill="#2563EB" height="0.771363553189305" width="1" x="71" y="0.22863644681069495" />,<rect key="72" fill="#2563EB" height="0.9193146535714735" width="1" x="72" y="0.08068534642852654" />,<rect key="73" fill="#2563EB" height="0.7817960714370291" width="1" x="73" y="0.21820392856297088" />,<rect key="74" fill="#2563EB" height="0.8469475044439503" width="1" x="74" y="0.15305249555604972" />,<rect key="75" fill="#2563EB" height="0.9780925194555478" width="1" x="75" y="0.02190748054445224" />,<rect key="76" fill="#2563EB" height="0.8911016473389706" width="1" x="76" y="0.10889835266102943" />,<rect key="77" fill="#2563EB" height="0.6447580063336866" width="1" x="77" y="0.35524199366631337" />,<rect key="78" fill="#2563EB" height="0.7145694824765908" width="1" x="78" y="0.2854305175234092" />,<rect key="79" fill="#2563EB" height="0.9453032996190526" width="1" x="79" y="0.05469670038094743" />,<rect key="80" fill="#2563EB" height="0.7682119728931244" width="1" x="80" y="0.23178802710687563" />,<rect key="81" fill="#2563EB" height="0.7985850713597075" width="1" x="81" y="0.20141492864029253" />,<rect key="82" fill="#2563EB" height="0.7803776323769117" width="1" x="82" y="0.2196223676230883" />,<rect key="83" fill="#2563EB" height="0.8123214031214031" width="1" x="83" y="0.1876785968785969" />,<rect key="84" fill="#2563EB" height="0.6962397616005944" width="1" x="84" y="0.3037602383994056" />,<rect key="85" fill="#2563EB" height="0.8742120347246356" width="1" x="85" y="0.1257879652753644" />,<rect key="86" fill="#2563EB" height="0.9394691304154738" width="1" x="86" y="0.06053086958452625" />,<rect key="87" fill="#2563EB" height="1" width="1" x="87" y="0" />,<rect key="88" fill="#2563EB" height="0.8552260178958954" width="1" x="88" y="0.14477398210410464" />,<rect key="89" fill="#2563EB" height="0.9255806016582342" width="1" x="89" y="0.07441939834176581" />,<rect key="90" fill="#2563EB" height="0.8632790934093408" width="1" x="90" y="0.13672090659065916" />,<rect key="91" fill="#2563EB" height="0.751605706600997" width="1" x="91" y="0.24839429339900299" />,<rect key="92" fill="#2563EB" height="0.8989049899252121" width="1" x="92" y="0.10109501007478794" />,<rect key="93" fill="#2563EB" height="0.81811030703487" width="1" x="93" y="0.18188969296513002" />,<rect key="94" fill="#2563EB" height="0.7970093371185327" width="1" x="94" y="0.20299066288146728" />,<rect key="95" fill="#2563EB" height="0.971210030404239" width="1" x="95" y="0.028789969595760967" />,<rect key="96" fill="#2563EB" height="0.7743041759803474" width="1" x="96" y="0.2256958240196526" />,<rect key="97" fill="#2563EB" height="0.7897882734459806" width="1" x="97" y="0.21021172655401943" />,<rect key="98" fill="#2563EB" height="0.11203336257082168" width="1" x="98" y="0.8879666374291784" />
    </svg>