<svg xmlns="http://www.w3.org/2000/svg" preserveAspectRatio="none" viewBox="0 0 100 1">
      <rect key="0" fill="#2563EB" height="0.4857644039409399" width="1" x="0" y="0.5142355960590601" />,<rect key="1" fill="#2563EB" height="0.47140426447120964" width="1" x="1" y="0.5285957355287904" />,<rect key="2" fill="#2563EB" height="0.4830834897057812" width="1" x="2" y="0.5169165102942188" />,<rect key="3" fill="#2563EB" height="0.5508442673987535" width="1" x="3" y="0.4491557326012465" />,<rect key="4" fill="#2563EB" height="0.5684601668192315" width="1" x="4" y="0.4315398331807685" />,<rect key="5" fill="#2563EB" height="0.5739337731602293" width="1" x="5" y="0.4260662268397707" />,<rect key="6" fill="#2563EB" height="0.5652063081978179" width="1" x="6" y="0.4347936918021821" />,<rect key="7" fill="#2563EB" height="0.6579252368958771" width="1" x="7" y="0.3420747631041229" />,<rect key="8" fill="#2563EB" height="0.5607710919794026" width="1" x="8" y="0.43922890802059744" />,<rect key="9" fill="#2563EB" height="0.5559424711048282" width="1" x="9" y="0.4440575288951718" />,<rect key="10" fill="#2563EB" height="0.5520746326727237" width="1" x="10" y="0.4479253673272763" />,<rect key="11" fill="#2563EB" height="0.5967411603836161" width="1" x="11" y="0.40325883961638387" />,<rect key="12" fill="#2563EB" height="0.659608288233698" width="1" x="12" y="0.340391711766302" />,<rect key="13" fill="#2563EB" height="0.5884527370194926" width="1" x="13" y="0.41154726298050737" />,<rect key="14" fill="#2563EB" height="0.5382760025818009" width="1" x="14" y="0.46172399741819914" />,<rect key="15" fill="#2563EB" height="0.5303568336532775" width="1" x="15" y="0.46964316634672254" />,<rect key="16" fill="#2563EB" height="0.5183815223001079" width="1" x="16" y="0.4816184776998921" />,<rect key="17" fill="#2563EB" height="0.49810192369215167" width="1" x="17" y="0.5018980763078483" />,<rect key="18" fill="#2563EB" height="0.5369401167747383" width="1" x="18" y="0.4630598832252617" />,<rect key="19" fill="#2563EB" height="0.5215265228572745" width="1" x="19" y="0.4784734771427255" />,<rect key="20" fill="#2563EB" height="0.5037480554634918" width="1" x="20" y="0.4962519445365082" />,<rect key="21" fill="#2563EB" height="0.4656657666735783" width="1" x="21" y="0.5343342333264217" />,<rect key="22" fill="#2563EB" height="0.6210495949377499" width="1" x="22" y="0.3789504050622501" />,<rect key="23" fill="#2563EB" height="0.5110415470755881" width="1" x="23" y="0.48895845292441187" />,<rect key="24" fill="#2563EB" height="0.5031118906998062" width="1" x="24" y="0.4968881093001938" />,<rect key="25" fill="#2563EB" height="0.5220650485427814" width="1" x="25" y="0.47793495145721865" />,<rect key="26" fill="#2563EB" height="0.49671879685225007" width="1" x="26" y="0.5032812031477499" />,<rect key="27" fill="#2563EB" height="0.47490029401107364" width="1" x="27" y="0.5250997059889264" />,<rect key="28" fill="#2563EB" height="0.5028672613886375" width="1" x="28" y="0.49713273861136253" />,<rect key="29" fill="#2563EB" height="0.6397760419207547" width="1" x="29" y="0.36022395807924534" />,<rect key="30" fill="#2563EB" height="0.5619418920271945" width="1" x="30" y="0.43805810797280553" />,<rect key="31" fill="#2563EB" height="0.536740405170714" width="1" x="31" y="0.463259594829286" />,<rect key="32" fill="#2563EB" height="0.496115174509224" width="1" x="32" y="0.503884825490776" />,<rect key="33" fill="#2563EB" height="0.45735745468002187" width="1" x="33" y="0.5426425453199781" />,<rect key="34" fill="#2563EB" height="0.5008632676822442" width="1" x="34" y="0.4991367323177558" />,<rect key="35" fill="#2563EB" height="0.5379708285219146" width="1" x="35" y="0.4620291714780854" />,<rect key="36" fill="#2563EB" height="0.5937509106939854" width="1" x="36" y="0.40624908930601455" />,<rect key="37" fill="#2563EB" height="0.6662692527714337" width="1" x="37" y="0.3337307472285663" />,<rect key="38" fill="#2563EB" height="0.6221331754042262" width="1" x="38" y="0.3778668245957738" />,<rect key="39" fill="#2563EB" height="0.5875719753711697" width="1" x="39" y="0.4124280246288303" />,<rect key="40" fill="#2563EB" height="0.5419483015947232" width="1" x="40" y="0.4580516984052768" />,<rect key="41" fill="#2563EB" height="0.5910053970778594" width="1" x="41" y="0.4089946029221406" />,<rect key="42" fill="#2563EB" height="0.6250833541882782" width="1" x="42" y="0.3749166458117218" />,<rect key="43" fill="#2563EB" height="0.6153879544433635" width="1" x="43" y="0.38461204555663653" />,<rect key="44" fill="#2563EB" height="0.4956676382008519" width="1" x="44" y="0.5043323617991481" />,<rect key="45" fill="#2563EB" height="0.5418810193491983" width="1" x="45" y="0.4581189806508017" />,<rect key="46" fill="#2563EB" height="0.5507665063137736" width="1" x="46" y="0.44923349368622645" />,<rect key="47" fill="#2563EB" height="0.4917035004465782" width="1" x="47" y="0.5082964995534218" />,<rect key="48" fill="#2563EB" height="0.6035783673904872" width="1" x="48" y="0.3964216326095128" />,<rect key="49" fill="#2563EB" height="0.5361373443763241" width="1" x="49" y="0.4638626556236759" />,<rect key="50" fill="#2563EB" height="0.5503993070676151" width="1" x="50" y="0.4496006929323849" />,<rect key="51" fill="#2563EB" height="0.49797620597429904" width="1" x="51" y="0.502023794025701" />,<rect key="52" fill="#2563EB" height="0.7603508143124449" width="1" x="52" y="0.2396491856875551" />,<rect key="53" fill="#2563EB" height="0.4940188905121362" width="1" x="53" y="0.5059811094878638" />,<rect key="54" fill="#2563EB" height="0.5145563602854283" width="1" x="54" y="0.4854436397145717" />,<rect key="55" fill="#2563EB" height="0.5007401989129509" width="1" x="55" y="0.49925980108704915" />,<rect key="56" fill="#2563EB" height="0.5309644295139616" width="1" x="56" y="0.4690355704860384" />,<rect key="57" fill="#2563EB" height="0.5285639898019251" width="1" x="57" y="0.4714360101980749" />,<rect key="58" fill="#2563EB" height="0.5327429666166885" width="1" x="58" y="0.4672570333833115" />,<rect key="59" fill="#2563EB" height="0.5687491055761802" width="1" x="59" y="0.4312508944238198" />,<rect key="60" fill="#2563EB" height="0.5392088763942091" width="1" x="60" y="0.4607911236057909" />,<rect key="61" fill="#2563EB" height="0.4907089219073569" width="1" x="61" y="0.5092910780926432" />,<rect key="62" fill="#2563EB" height="0.48422523453348293" width="1" x="62" y="0.515774765466517" />,<rect key="63" fill="#2563EB" height="0.4960159688104427" width="1" x="63" y="0.5039840311895574" />,<rect key="64" fill="#2563EB" height="0.5839755600353571" width="1" x="64" y="0.4160244399646429" />,<rect key="65" fill="#2563EB" height="0.5526213542460878" width="1" x="65" y="0.4473786457539122" />,<rect key="66" fill="#2563EB" height="0.5573214751457881" width="1" x="66" y="0.4426785248542119" />,<rect key="67" fill="#2563EB" height="0.6626658899222411" width="1" x="67" y="0.33733411007775893" />,<rect key="68" fill="#2563EB" height="0.49751847064285804" width="1" x="68" y="0.502481529357142" />,<rect key="69" fill="#2563EB" height="0.8522138310737501" width="1" x="69" y="0.14778616892624985" />,<rect key="70" fill="#2563EB" height="0.49510015361330023" width="1" x="70" y="0.5048998463866998" />,<rect key="71" fill="#2563EB" height="0.5911360814505694" width="1" x="71" y="0.4088639185494306" />,<rect key="72" fill="#2563EB" height="0.6227838279337201" width="1" x="72" y="0.3772161720662799" />,<rect key="73" fill="#2563EB" height="0.562041704479645" width="1" x="73" y="0.43795829552035503" />,<rect key="74" fill="#2563EB" height="0.49728670507156575" width="1" x="74" y="0.5027132949284343" />,<rect key="75" fill="#2563EB" height="0.5621539991671298" width="1" x="75" y="0.4378460008328702" />,<rect key="76" fill="#2563EB" height="0.5084231516514482" width="1" x="76" y="0.49157684834855175" />,<rect key="77" fill="#2563EB" height="0.5192253689472405" width="1" x="77" y="0.4807746310527595" />,<rect key="78" fill="#2563EB" height="0.8877780895173717" width="1" x="78" y="0.1122219104826283" />,<rect key="79" fill="#2563EB" height="0.6586439432222051" width="1" x="79" y="0.3413560567777949" />,<rect key="80" fill="#2563EB" height="0.49734284550978636" width="1" x="80" y="0.5026571544902136" />,<rect key="81" fill="#2563EB" height="0.5358647586294453" width="1" x="81" y="0.46413524137055473" />,<rect key="82" fill="#2563EB" height="0.5243456900720344" width="1" x="82" y="0.47565430992796565" />,<rect key="83" fill="#2563EB" height="1" width="1" x="83" y="0" />,<rect key="84" fill="#2563EB" height="0.5424927581021547" width="1" x="84" y="0.4575072418978453" />,<rect key="85" fill="#2563EB" height="0.49348120748974356" width="1" x="85" y="0.5065187925102564" />,<rect key="86" fill="#2563EB" height="0.5053341880679623" width="1" x="86" y="0.49466581193203774" />,<rect key="87" fill="#2563EB" height="0.6455710143910763" width="1" x="87" y="0.35442898560892366" />,<rect key="88" fill="#2563EB" height="0.6029723839394268" width="1" x="88" y="0.39702761606057324" />,<rect key="89" fill="#2563EB" height="0.5301409804780273" width="1" x="89" y="0.46985901952197273" />,<rect key="90" fill="#2563EB" height="0.5607375431379485" width="1" x="90" y="0.43926245686205145" />,<rect key="91" fill="#2563EB" height="0.505245539323771" width="1" x="91" y="0.49475446067622897" />,<rect key="92" fill="#2563EB" height="0.13272166545308162" width="1" x="92" y="0.8672783345469184" />,<rect key="93" fill="#2563EB" height="0.0011426331318560936" width="1" x="93" y="0.9988573668681439" />,<rect key="94" fill="#2563EB" height="0.00013288676237249893" width="1" x="94" y="0.9998671132376274" />,<rect key="95" fill="#2563EB" height="0.000012699683094820581" width="1" x="95" y="0.9999873003169052" />,<rect key="96" fill="#2563EB" height="7.814840415781462e-8" width="1" x="96" y="0.9999999218515958" />,<rect key="97" fill="#2563EB" height="0" width="1" x="97" y="1" />,<rect key="98" fill="#2563EB" height="0" width="1" x="98" y="1" />
    </svg>