<svg xmlns="http://www.w3.org/2000/svg" preserveAspectRatio="none" viewBox="0 0 100 1">
      <rect key="0" fill="#2563EB" height="0.8706046035174791" width="1" x="0" y="0.12939539648252085" />,<rect key="1" fill="#2563EB" height="0.9502093431649874" width="1" x="1" y="0.0497906568350126" />,<rect key="2" fill="#2563EB" height="0.78734286635581" width="1" x="2" y="0.21265713364419003" />,<rect key="3" fill="#2563EB" height="0.8092945159847499" width="1" x="3" y="0.19070548401525012" />,<rect key="4" fill="#2563EB" height="0.7453968527460793" width="1" x="4" y="0.25460314725392075" />,<rect key="5" fill="#2563EB" height="0.7081126424563691" width="1" x="5" y="0.29188735754363093" />,<rect key="6" fill="#2563EB" height="0.845061430639281" width="1" x="6" y="0.15493856936071904" />,<rect key="7" fill="#2563EB" height="0.8128871142943584" width="1" x="7" y="0.18711288570564155" />,<rect key="8" fill="#2563EB" height="0.6497277267562279" width="1" x="8" y="0.3502722732437721" />,<rect key="9" fill="#2563EB" height="0.8056053157333087" width="1" x="9" y="0.19439468426669126" />,<rect key="10" fill="#2563EB" height="0.689869856593223" width="1" x="10" y="0.310130143406777" />,<rect key="11" fill="#2563EB" height="0.814385664981355" width="1" x="11" y="0.185614335018645" />,<rect key="12" fill="#2563EB" height="0.9094252007859874" width="1" x="12" y="0.09057479921401257" />,<rect key="13" fill="#2563EB" height="0.9002347796920676" width="1" x="13" y="0.09976522030793245" />,<rect key="14" fill="#2563EB" height="0.9650351613574485" width="1" x="14" y="0.03496483864255151" />,<rect key="15" fill="#2563EB" height="0.7296910357060736" width="1" x="15" y="0.27030896429392637" />,<rect key="16" fill="#2563EB" height="0.8121055138942896" width="1" x="16" y="0.18789448610571036" />,<rect key="17" fill="#2563EB" height="0.8952959655962349" width="1" x="17" y="0.10470403440376508" />,<rect key="18" fill="#2563EB" height="0.809149930020758" width="1" x="18" y="0.19085006997924203" />,<rect key="19" fill="#2563EB" height="0.772327336349741" width="1" x="19" y="0.22767266365025896" />,<rect key="20" fill="#2563EB" height="0.8139070749317433" width="1" x="20" y="0.1860929250682567" />,<rect key="21" fill="#2563EB" height="0.7483384592473105" width="1" x="21" y="0.25166154075268954" />,<rect key="22" fill="#2563EB" height="0.8074353382461792" width="1" x="22" y="0.1925646617538208" />,<rect key="23" fill="#2563EB" height="0.817721411948614" width="1" x="23" y="0.18227858805138597" />,<rect key="24" fill="#2563EB" height="0.7332742138475722" width="1" x="24" y="0.2667257861524278" />,<rect key="25" fill="#2563EB" height="0.7994513048384942" width="1" x="25" y="0.20054869516150575" />,<rect key="26" fill="#2563EB" height="0.762398466389432" width="1" x="26" y="0.23760153361056802" />,<rect key="27" fill="#2563EB" height="0.7635509453990024" width="1" x="27" y="0.23644905460099763" />,<rect key="28" fill="#2563EB" height="0.6196687882136935" width="1" x="28" y="0.38033121178630647" />,<rect key="29" fill="#2563EB" height="0.6770367477955002" width="1" x="29" y="0.32296325220449984" />,<rect key="30" fill="#2563EB" height="0.9239697548973563" width="1" x="30" y="0.07603024510264367" />,<rect key="31" fill="#2563EB" height="0.8563728286005219" width="1" x="31" y="0.14362717139947812" />,<rect key="32" fill="#2563EB" height="0.788876800070017" width="1" x="32" y="0.21112319992998296" />,<rect key="33" fill="#2563EB" height="0.5226846355573477" width="1" x="33" y="0.4773153644426523" />,<rect key="34" fill="#2563EB" height="0.610901620780137" width="1" x="34" y="0.389098379219863" />,<rect key="35" fill="#2563EB" height="0.7781927556460349" width="1" x="35" y="0.22180724435396515" />,<rect key="36" fill="#2563EB" height="0.8148095977348022" width="1" x="36" y="0.18519040226519778" />,<rect key="37" fill="#2563EB" height="0.9340305483296928" width="1" x="37" y="0.06596945167030721" />,<rect key="38" fill="#2563EB" height="0.8528535419750856" width="1" x="38" y="0.14714645802491444" />,<rect key="39" fill="#2563EB" height="0.7227353470230512" width="1" x="39" y="0.2772646529769488" />,<rect key="40" fill="#2563EB" height="0.7344311936659713" width="1" x="40" y="0.2655688063340287" />,<rect key="41" fill="#2563EB" height="0.8905071736328296" width="1" x="41" y="0.10949282636717039" />,<rect key="42" fill="#2563EB" height="0.8045608154790365" width="1" x="42" y="0.19543918452096354" />,<rect key="43" fill="#2563EB" height="0.8870378297659612" width="1" x="43" y="0.11296217023403876" />,<rect key="44" fill="#2563EB" height="0.8152024392276435" width="1" x="44" y="0.18479756077235654" />,<rect key="45" fill="#2563EB" height="0.6914975013935158" width="1" x="45" y="0.30850249860648415" />,<rect key="46" fill="#2563EB" height="0.7711215779353305" width="1" x="46" y="0.22887842206466946" />,<rect key="47" fill="#2563EB" height="0.8721722675970737" width="1" x="47" y="0.12782773240292633" />,<rect key="48" fill="#2563EB" height="0.7879177500597779" width="1" x="48" y="0.21208224994022207" />,<rect key="49" fill="#2563EB" height="0.8966677586656548" width="1" x="49" y="0.10333224133434515" />,<rect key="50" fill="#2563EB" height="0.8232963579373964" width="1" x="50" y="0.17670364206260358" />,<rect key="51" fill="#2563EB" height="0.7231994443801867" width="1" x="51" y="0.2768005556198133" />,<rect key="52" fill="#2563EB" height="0.7070454926835" width="1" x="52" y="0.29295450731649997" />,<rect key="53" fill="#2563EB" height="0.8667520733943814" width="1" x="53" y="0.13324792660561857" />,<rect key="54" fill="#2563EB" height="0.7594740087025172" width="1" x="54" y="0.24052599129748276" />,<rect key="55" fill="#2563EB" height="0.8006666272443351" width="1" x="55" y="0.19933337275566487" />,<rect key="56" fill="#2563EB" height="0.7446259652849034" width="1" x="56" y="0.25537403471509657" />,<rect key="57" fill="#2563EB" height="0.6364363449126529" width="1" x="57" y="0.3635636550873471" />,<rect key="58" fill="#2563EB" height="0.6274619716450528" width="1" x="58" y="0.3725380283549472" />,<rect key="59" fill="#2563EB" height="0.8301197657641115" width="1" x="59" y="0.1698802342358885" />,<rect key="60" fill="#2563EB" height="0.6391460357476847" width="1" x="60" y="0.3608539642523153" />,<rect key="61" fill="#2563EB" height="0.712345004138269" width="1" x="61" y="0.28765499586173104" />,<rect key="62" fill="#2563EB" height="0.9011420422972941" width="1" x="62" y="0.09885795770270589" />,<rect key="63" fill="#2563EB" height="0.5944124075612874" width="1" x="63" y="0.40558759243871256" />,<rect key="64" fill="#2563EB" height="0.7896723553438262" width="1" x="64" y="0.21032764465617382" />,<rect key="65" fill="#2563EB" height="0.8534410419321189" width="1" x="65" y="0.1465589580678811" />,<rect key="66" fill="#2563EB" height="0.7161359400113039" width="1" x="66" y="0.2838640599886961" />,<rect key="67" fill="#2563EB" height="0.5781844732579369" width="1" x="67" y="0.42181552674206313" />,<rect key="68" fill="#2563EB" height="0.6508961544639147" width="1" x="68" y="0.3491038455360853" />,<rect key="69" fill="#2563EB" height="0.6123698050086392" width="1" x="69" y="0.38763019499136075" />,<rect key="70" fill="#2563EB" height="0.6436318083753104" width="1" x="70" y="0.3563681916246896" />,<rect key="71" fill="#2563EB" height="0.8149782505404477" width="1" x="71" y="0.1850217494595523" />,<rect key="72" fill="#2563EB" height="0.7380007519077056" width="1" x="72" y="0.26199924809229436" />,<rect key="73" fill="#2563EB" height="0.8817759764694582" width="1" x="73" y="0.11822402353054184" />,<rect key="74" fill="#2563EB" height="0.8598857112395958" width="1" x="74" y="0.14011428876040422" />,<rect key="75" fill="#2563EB" height="0.7649388606433243" width="1" x="75" y="0.23506113935667572" />,<rect key="76" fill="#2563EB" height="0.6495364835200105" width="1" x="76" y="0.3504635164799895" />,<rect key="77" fill="#2563EB" height="0.7333053219867075" width="1" x="77" y="0.2666946780132925" />,<rect key="78" fill="#2563EB" height="1" width="1" x="78" y="0" />,<rect key="79" fill="#2563EB" height="0.9387400699371905" width="1" x="79" y="0.0612599300628095" />,<rect key="80" fill="#2563EB" height="0.8396804846072025" width="1" x="80" y="0.16031951539279754" />,<rect key="81" fill="#2563EB" height="0.699697528508188" width="1" x="81" y="0.300302471491812" />,<rect key="82" fill="#2563EB" height="0.7635531947815043" width="1" x="82" y="0.2364468052184957" />,<rect key="83" fill="#2563EB" height="0.7422168615593154" width="1" x="83" y="0.25778313844068457" />,<rect key="84" fill="#2563EB" height="0.6401811119914587" width="1" x="84" y="0.35981888800854134" />,<rect key="85" fill="#2563EB" height="0.6582477174624393" width="1" x="85" y="0.34175228253756074" />,<rect key="86" fill="#2563EB" height="0.7576387479758268" width="1" x="86" y="0.24236125202417325" />,<rect key="87" fill="#2563EB" height="0.7106535250337552" width="1" x="87" y="0.28934647496624477" />,<rect key="88" fill="#2563EB" height="0.6811458687416886" width="1" x="88" y="0.3188541312583114" />,<rect key="89" fill="#2563EB" height="0.7844023750480446" width="1" x="89" y="0.21559762495195545" />,<rect key="90" fill="#2563EB" height="0.7684422000537221" width="1" x="90" y="0.2315577999462779" />,<rect key="91" fill="#2563EB" height="0.7394490956256897" width="1" x="91" y="0.2605509043743103" />,<rect key="92" fill="#2563EB" height="0.6011980339007063" width="1" x="92" y="0.39880196609929375" />,<rect key="93" fill="#2563EB" height="0.6183386700821549" width="1" x="93" y="0.38166132991784507" />,<rect key="94" fill="#2563EB" height="0.6712294505223132" width="1" x="94" y="0.3287705494776868" />,<rect key="95" fill="#2563EB" height="0.9602612136027381" width="1" x="95" y="0.039738786397261916" />,<rect key="96" fill="#2563EB" height="0.45157755166434155" width="1" x="96" y="0.5484224483356585" />,<rect key="97" fill="#2563EB" height="0.004260193485245705" width="1" x="97" y="0.9957398065147542" />,<rect key="98" fill="#2563EB" height="0.00002229401745004214" width="1" x="98" y="0.99997770598255" />
    </svg>