<svg xmlns="http://www.w3.org/2000/svg" preserveAspectRatio="none" viewBox="0 0 100 1">
      <rect key="0" fill="#2563EB" height="0.1419001622651293" width="1" x="0" y="0.8580998377348708" />,<rect key="1" fill="#2563EB" height="0.13272272860018258" width="1" x="1" y="0.8672772713998174" />,<rect key="2" fill="#2563EB" height="0.18004540005395625" width="1" x="2" y="0.8199545999460438" />,<rect key="3" fill="#2563EB" height="0.2176011199780859" width="1" x="3" y="0.7823988800219142" />,<rect key="4" fill="#2563EB" height="0.4100370779160696" width="1" x="4" y="0.5899629220839304" />,<rect key="5" fill="#2563EB" height="0.41772217872942696" width="1" x="5" y="0.582277821270573" />,<rect key="6" fill="#2563EB" height="0.4249981279216064" width="1" x="6" y="0.5750018720783936" />,<rect key="7" fill="#2563EB" height="0.43931909034026295" width="1" x="7" y="0.560680909659737" />,<rect key="8" fill="#2563EB" height="0.38529386427187423" width="1" x="8" y="0.6147061357281258" />,<rect key="9" fill="#2563EB" height="0.7078783614453391" width="1" x="9" y="0.2921216385546609" />,<rect key="10" fill="#2563EB" height="0.7121085513873446" width="1" x="10" y="0.28789144861265537" />,<rect key="11" fill="#2563EB" height="0.5704701346060088" width="1" x="11" y="0.4295298653939912" />,<rect key="12" fill="#2563EB" height="0.6822026843193987" width="1" x="12" y="0.3177973156806013" />,<rect key="13" fill="#2563EB" height="0.8877238606629274" width="1" x="13" y="0.11227613933707259" />,<rect key="14" fill="#2563EB" height="0.6954310146718756" width="1" x="14" y="0.3045689853281244" />,<rect key="15" fill="#2563EB" height="0.6957687773250991" width="1" x="15" y="0.3042312226749009" />,<rect key="16" fill="#2563EB" height="0.8065652150275661" width="1" x="16" y="0.19343478497243394" />,<rect key="17" fill="#2563EB" height="0.6374223596702362" width="1" x="17" y="0.3625776403297638" />,<rect key="18" fill="#2563EB" height="0.7151615439350568" width="1" x="18" y="0.2848384560649432" />,<rect key="19" fill="#2563EB" height="0.6732871425616065" width="1" x="19" y="0.3267128574383935" />,<rect key="20" fill="#2563EB" height="0.746213685148752" width="1" x="20" y="0.25378631485124803" />,<rect key="21" fill="#2563EB" height="0.7719192167279064" width="1" x="21" y="0.22808078327209358" />,<rect key="22" fill="#2563EB" height="0.8785117523985797" width="1" x="22" y="0.1214882476014203" />,<rect key="23" fill="#2563EB" height="0.7953987902548565" width="1" x="23" y="0.2046012097451435" />,<rect key="24" fill="#2563EB" height="0.7870174255911889" width="1" x="24" y="0.21298257440881108" />,<rect key="25" fill="#2563EB" height="0.8366062060030675" width="1" x="25" y="0.16339379399693255" />,<rect key="26" fill="#2563EB" height="0.7878250452926011" width="1" x="26" y="0.2121749547073989" />,<rect key="27" fill="#2563EB" height="0.8086380247696647" width="1" x="27" y="0.19136197523033527" />,<rect key="28" fill="#2563EB" height="0.7907726228683215" width="1" x="28" y="0.2092273771316785" />,<rect key="29" fill="#2563EB" height="0.7379432799840261" width="1" x="29" y="0.2620567200159739" />,<rect key="30" fill="#2563EB" height="0.6852497383567044" width="1" x="30" y="0.31475026164329556" />,<rect key="31" fill="#2563EB" height="0.7094474310121571" width="1" x="31" y="0.2905525689878429" />,<rect key="32" fill="#2563EB" height="0.7038343513773835" width="1" x="32" y="0.2961656486226165" />,<rect key="33" fill="#2563EB" height="0.7156332154680831" width="1" x="33" y="0.2843667845319169" />,<rect key="34" fill="#2563EB" height="0.5569172349807465" width="1" x="34" y="0.4430827650192535" />,<rect key="35" fill="#2563EB" height="0.7938054429539639" width="1" x="35" y="0.20619455704603606" />,<rect key="36" fill="#2563EB" height="0.6327620389713569" width="1" x="36" y="0.36723796102864315" />,<rect key="37" fill="#2563EB" height="0.688576474157724" width="1" x="37" y="0.31142352584227595" />,<rect key="38" fill="#2563EB" height="0.6865902945297784" width="1" x="38" y="0.3134097054702216" />,<rect key="39" fill="#2563EB" height="0.9258851869143396" width="1" x="39" y="0.07411481308566037" />,<rect key="40" fill="#2563EB" height="0.7541977925298045" width="1" x="40" y="0.24580220747019554" />,<rect key="41" fill="#2563EB" height="0.6547488910767908" width="1" x="41" y="0.3452511089232092" />,<rect key="42" fill="#2563EB" height="0.8463898560723591" width="1" x="42" y="0.15361014392764094" />,<rect key="43" fill="#2563EB" height="0.5398433077818824" width="1" x="43" y="0.4601566922181176" />,<rect key="44" fill="#2563EB" height="1" width="1" x="44" y="0" />,<rect key="45" fill="#2563EB" height="0.7220671571897356" width="1" x="45" y="0.2779328428102644" />,<rect key="46" fill="#2563EB" height="0.7073511675438893" width="1" x="46" y="0.29264883245611073" />,<rect key="47" fill="#2563EB" height="0.7287712109945347" width="1" x="47" y="0.2712287890054653" />,<rect key="48" fill="#2563EB" height="0.9385177593711858" width="1" x="48" y="0.061482240628814244" />,<rect key="49" fill="#2563EB" height="0.6880147152393439" width="1" x="49" y="0.3119852847606561" />,<rect key="50" fill="#2563EB" height="0.7270579127737256" width="1" x="50" y="0.27294208722627444" />,<rect key="51" fill="#2563EB" height="0.6954440586941286" width="1" x="51" y="0.3045559413058714" />,<rect key="52" fill="#2563EB" height="0.6007063560530961" width="1" x="52" y="0.3992936439469039" />,<rect key="53" fill="#2563EB" height="0.8429650659243787" width="1" x="53" y="0.1570349340756213" />,<rect key="54" fill="#2563EB" height="0.7406593216975558" width="1" x="54" y="0.2593406783024442" />,<rect key="55" fill="#2563EB" height="0.7692921325579968" width="1" x="55" y="0.23070786744200322" />,<rect key="56" fill="#2563EB" height="0.7117410532722106" width="1" x="56" y="0.2882589467277894" />,<rect key="57" fill="#2563EB" height="0.7903940473566702" width="1" x="57" y="0.20960595264332982" />,<rect key="58" fill="#2563EB" height="0.7206004992235628" width="1" x="58" y="0.27939950077643716" />,<rect key="59" fill="#2563EB" height="0.7068971370276314" width="1" x="59" y="0.29310286297236865" />,<rect key="60" fill="#2563EB" height="0.6717164261541406" width="1" x="60" y="0.3282835738458594" />,<rect key="61" fill="#2563EB" height="0.7214800414734885" width="1" x="61" y="0.27851995852651146" />,<rect key="62" fill="#2563EB" height="0.8115477420842511" width="1" x="62" y="0.18845225791574893" />,<rect key="63" fill="#2563EB" height="0.7226665908950435" width="1" x="63" y="0.2773334091049565" />,<rect key="64" fill="#2563EB" height="0.732991075508724" width="1" x="64" y="0.267008924491276" />,<rect key="65" fill="#2563EB" height="0.7305456582032728" width="1" x="65" y="0.2694543417967272" />,<rect key="66" fill="#2563EB" height="0.7452718551986605" width="1" x="66" y="0.25472814480133954" />,<rect key="67" fill="#2563EB" height="0.6636788102579311" width="1" x="67" y="0.3363211897420689" />,<rect key="68" fill="#2563EB" height="0.7706853002905123" width="1" x="68" y="0.2293146997094877" />,<rect key="69" fill="#2563EB" height="0.6455088897831931" width="1" x="69" y="0.3544911102168069" />,<rect key="70" fill="#2563EB" height="0.5453325495868194" width="1" x="70" y="0.4546674504131806" />,<rect key="71" fill="#2563EB" height="0.48989829682539965" width="1" x="71" y="0.5101017031746004" />,<rect key="72" fill="#2563EB" height="0.3631075181969014" width="1" x="72" y="0.6368924818030985" />,<rect key="73" fill="#2563EB" height="0.2605697278477733" width="1" x="73" y="0.7394302721522267" />,<rect key="74" fill="#2563EB" height="0.27769329242256446" width="1" x="74" y="0.7223067075774355" />,<rect key="75" fill="#2563EB" height="0.1768354331223516" width="1" x="75" y="0.8231645668776484" />,<rect key="76" fill="#2563EB" height="0.3256846957080007" width="1" x="76" y="0.6743153042919994" />,<rect key="77" fill="#2563EB" height="0.2724407928810731" width="1" x="77" y="0.727559207118927" />,<rect key="78" fill="#2563EB" height="0.15206864451344113" width="1" x="78" y="0.8479313554865588" />,<rect key="79" fill="#2563EB" height="0.2335761407111989" width="1" x="79" y="0.7664238592888011" />,<rect key="80" fill="#2563EB" height="0.39912660889929913" width="1" x="80" y="0.6008733911007009" />,<rect key="81" fill="#2563EB" height="0.21604297446652238" width="1" x="81" y="0.7839570255334776" />,<rect key="82" fill="#2563EB" height="0.14216507280548846" width="1" x="82" y="0.8578349271945116" />,<rect key="83" fill="#2563EB" height="0.24439926668019224" width="1" x="83" y="0.7556007333198078" />,<rect key="84" fill="#2563EB" height="0.5446759442951785" width="1" x="84" y="0.4553240557048215" />,<rect key="85" fill="#2563EB" height="0.29457684674688706" width="1" x="85" y="0.705423153253113" />,<rect key="86" fill="#2563EB" height="0.12590957012237167" width="1" x="86" y="0.8740904298776283" />,<rect key="87" fill="#2563EB" height="0.1907656413643078" width="1" x="87" y="0.8092343586356923" />,<rect key="88" fill="#2563EB" height="0.5047492861534864" width="1" x="88" y="0.49525071384651365" />,<rect key="89" fill="#2563EB" height="0.39469834120430564" width="1" x="89" y="0.6053016587956943" />,<rect key="90" fill="#2563EB" height="0.21487078558504402" width="1" x="90" y="0.785129214414956" />,<rect key="91" fill="#2563EB" height="0.21215441626426698" width="1" x="91" y="0.787845583735733" />,<rect key="92" fill="#2563EB" height="0.18599501503654806" width="1" x="92" y="0.814004984963452" />,<rect key="93" fill="#2563EB" height="0.16503508677678824" width="1" x="93" y="0.8349649132232118" />,<rect key="94" fill="#2563EB" height="0.00766885375264179" width="1" x="94" y="0.9923311462473582" />,<rect key="95" fill="#2563EB" height="0.000012605713113866562" width="1" x="95" y="0.9999873942868861" />,<rect key="96" fill="#2563EB" height="0" width="1" x="96" y="1" />,<rect key="97" fill="#2563EB" height="0" width="1" x="97" y="1" />,<rect key="98" fill="#2563EB" height="0" width="1" x="98" y="1" />
    </svg>